<?xml version="1.0" encoding="UTF-8"?>
<svg id="Ramblers_Media_Logo_and_Icon" xmlns="http://www.w3.org/2000/svg" viewBox="0 0 979.08 213.36">
  <g id="ramblers-media-logo">
    <g id="MEDIA">
      <path d="M678.78,174.69h7.49l18.19,38.67h-6.94l-5.5-11.11h-19.19c-1.79,3.72-3.62,7.39-5.4,11.11h-6.89l18.24-38.67ZM689.14,196.25c-2.23-4.71-4.56-9.57-6.59-14.08h-.15c-1.64,3.52-4.21,8.87-6.69,14.08h13.44Z"/>
      <path d="M589.25,174.69h6.59v38.67h-6.59v-38.67Z"/>
      <path d="M485.09,174.69h17.15c15.47,0,22.01,8.63,22.01,19.09,0,11.5-7.98,19.58-21.47,19.58h-17.7v-38.67ZM502.39,207.61c8.43,0,14.97-3.77,14.97-13.48,0-10.86-7.93-13.68-16.71-13.68h-8.97v27.17h10.71Z"/>
      <path d="M385.5,174.69h29.75v5.75h-23.15v10.21h21.96v6h-21.96v10.91h23.75v5.8h-30.34v-38.67Z"/>
      <path d="M269.09,174.69h8.13c5.45,9.72,10.91,19.43,16.36,29.1h.1c5.5-9.67,10.96-19.38,16.41-29.1h8.13v38.67h-6.69v-26.92h-.2l-15.12,26.92h-5.21c-5.01-8.97-10.01-17.95-15.07-26.92h-.15v26.92h-6.69v-38.67Z"/>
    </g>
    <g id="RAMBLERS">
      <path d="M977.51,40.64c-10.26,1.04-19.92,2.03-29.69,3.02-.44-.64-.95-1.11-1.13-1.69-4.55-14.48-16.57-16.34-27.72-14.35-5.88,1.05-10.17,5.38-10.87,10.23-.8,5.59,1.53,10.52,7.84,12.88,8.94,3.35,18.29,5.57,27.41,8.45,4.87,1.54,9.77,3.16,14.41,5.26,17.99,8.15,25.32,26.05,19.18,46.12-4.34,14.17-14.15,23.19-27.82,27.36-18.59,5.67-37.27,5.36-55.02-3.56-11.89-5.97-19.64-15.75-24.32-28.9,9.95-3.5,19.63-6.9,29.24-10.28,7.29,16.31,16.69,20.32,34.41,18.61,2.52-.24,5.22-1.24,7.35-2.63,8.34-5.43,8.06-15.75-.72-20.43-4.16-2.22-8.93-3.33-13.47-4.8-9.72-3.16-19.74-5.61-29.16-9.5-14.42-5.96-21.72-17.42-21.69-33.06.03-15.36,6.09-28.08,19.87-35.31,19.64-10.32,40.13-11.03,59.93-.4,12.51,6.72,20.49,17.39,21.98,32.98Z"/>
      <path d="M829.93,86.67c9.63,17.12,19.16,34.07,29.15,51.81h-35.4c-8.44-15.53-17.17-31.61-26.08-48.01h-16.38v48.2h-31.19V4.02c1.28-.24,2.37-.63,3.45-.62,20.66.24,41.37-.29,61.97,1.02,19.97,1.28,34.1,13.85,37.51,31.9,3.62,19.18-.95,37.97-21.2,48.95-.42.23-.78.59-1.81,1.4ZM781.5,64.58c8.99,0,17.57.58,26.04-.17,7.63-.68,13.21-7.9,13.8-15.9.58-7.91-3.42-15.67-10.7-16.94-9.42-1.64-19.15-1.44-29.14-2.06v35.07Z"/>
      <path d="M642.82,3.84h87.26v26.18h-55.52v26.09h51.2v27.44h-51.13v28.76h55.9v26.45h-87.72V3.84Z"/>
      <path d="M628.96,112.05v26.67h-82.92V3.88h31.39v108.17h51.53Z"/>
      <path d="M507.83,68.3c.73.66,1.06,1.05,1.46,1.31,15.79,10.21,20.57,20.47,17.35,37.86-3.09,16.67-13.95,25.74-29.81,29.36-5.44,1.24-11.12,1.89-16.7,1.99-17.04.3-34.08.2-51.12.23-1.96,0-3.92-.19-6.31-.31V4.19c.69-.25,1.29-.66,1.89-.65,21.16.2,42.34.2,63.49.8,7.64.22,14.98,2.69,21.26,7.43,18.67,14.11,18.96,39.9.66,54.62-.63.51-1.22,1.07-2.16,1.9ZM454.13,111.64c10.24,0,20.14.65,29.92-.22,6.78-.6,10.97-7.36,10.85-14.55-.12-6.92-3.5-12.45-9.87-12.95-10.12-.79-20.35-.21-30.89-.21v27.93ZM454.22,30.38v27.84c9.15-.48,17.9-.36,26.47-1.57,6.87-.97,10.21-6.52,10-13.85-.18-6.48-4.01-11.69-10.68-12.25-8.46-.71-17.03-.17-25.79-.17Z"/>
      <path d="M366.94,56.21c-9.53,25.57-19.07,51.15-28.62,76.76h-18.46c-9.69-25.36-19.49-51-29.3-76.65-.35.08-.71.16-1.06.24v82.04h-30.02V3.76h39.27c9.81,26.21,19.68,52.59,29.54,78.97.44.08.89.15,1.33.23,9.68-26.32,19.36-52.64,29.11-79.16h39.79v134.95h-30.16V56.49c-.48-.1-.95-.19-1.43-.29Z"/>
      <path d="M163.23,3.76h36.72c15.52,44.95,30.96,89.68,46.61,135.01h-33.55c-2.74-8.71-5.4-17.18-8.09-25.75h-46.82c-2.85,8.52-5.71,17.08-8.62,25.77h-33.36c15.81-45.32,31.44-90.13,47.1-135.02ZM165.83,86.15h31.06c-5.11-16.06-10-31.41-14.89-46.77-.37-.02-.74-.04-1.1-.06-4.97,15.45-9.94,30.91-15.07,46.83Z"/>
      <path d="M48.28,90.51h-16.76v48.17H0V3.93c1.79-.19,3.21-.47,4.64-.48,17.87-.02,35.74-.23,53.6.08,12.27.21,23.9,2.78,33.55,11.34,19.15,16.98,17.08,52.21-4.06,66.63-2.17,1.48-4.37,2.92-7.23,4.83,4.91,8.78,9.7,17.38,14.53,25.94,4.84,8.58,9.73,17.12,15.03,26.44h-35.79c-8.66-16.06-17.35-32.17-26-48.21ZM32.06,64.61c9.12,0,17.53.58,25.83-.17,7.49-.68,13.06-7.34,13.92-14.68.95-8.09-2.42-15.06-9.49-17.81-9.82-3.83-20.03-1.23-30.26-2v34.66Z"/>
    </g>
  </g>
</svg>