<?xml version="1.0" encoding="UTF-8"?>
<svg id="Ramblers_Media_Logo_and_Icon" xmlns="http://www.w3.org/2000/svg" viewBox="0 0 383.89 135.68">
  <g id="rmb-icon">
    <g id="RMB">
      <path d="M364.14,64.94c.73.66,1.06,1.05,1.46,1.31,15.79,10.21,20.57,20.47,17.35,37.86-3.09,16.67-13.95,25.74-29.81,29.36-5.44,1.24-11.12,1.89-16.7,1.99-17.04.3-34.08.2-51.12.23-1.96,0-3.92-.19-6.31-.31V.83c.69-.25,1.29-.66,1.89-.65,21.16.2,42.34.2,63.49.8,7.64.22,14.98,2.69,21.26,7.43,18.67,14.11,18.96,39.9.66,54.62-.63.51-1.22,1.07-2.16,1.9ZM310.44,108.27c10.24,0,20.14.65,29.92-.22,6.78-.6,10.97-7.36,10.85-14.55-.12-6.92-3.5-12.45-9.87-12.95-10.12-.79-20.35-.21-30.89-.21v27.93ZM310.53,27.01v27.84c9.15-.48,17.9-.36,26.47-1.57,6.87-.97,10.21-6.52,10-13.85-.18-6.48-4.01-11.69-10.68-12.25-8.46-.71-17.03-.17-25.79-.17Z"/>
      <path d="M223.25,52.84c-9.53,25.57-19.07,51.15-28.62,76.76h-18.46c-9.69-25.36-19.49-51-29.3-76.65-.35.08-.71.16-1.06.24v82.04h-30.02V.4h39.27c9.81,26.21,19.68,52.59,29.54,78.97.44.08.89.15,1.33.23,9.68-26.32,19.36-52.64,29.11-79.16h39.79v134.95h-30.16V53.13c-.48-.1-.95-.19-1.43-.29Z"/>
      <path d="M48.28,87.14h-16.76v48.17H0V.56C1.79.37,3.21.09,4.64.09c17.87-.02,35.74-.23,53.6.08,12.27.21,23.9,2.78,33.55,11.34,19.15,16.98,17.08,52.21-4.06,66.63-2.17,1.48-4.37,2.92-7.23,4.83,4.91,8.78,9.7,17.38,14.53,25.94,4.84,8.58,9.73,17.12,15.03,26.44h-35.79c-8.66-16.06-17.35-32.17-26-48.21ZM32.06,61.24c9.12,0,17.53.58,25.83-.17,7.49-.68,13.06-7.34,13.92-14.68.95-8.09-2.42-15.06-9.49-17.81-9.82-3.83-20.03-1.23-30.26-2v34.66Z"/>
    </g>
  </g>
</svg>