<svg width="332" height="300" viewBox="0 0 332 300" fill="none" xmlns="http://www.w3.org/2000/svg">
<path d="M283.484 0C221.818 0 192.623 79.7255 192.623 79.7255L197.396 86.65C202.87 83.3749 209.42 79.7255 216.999 79.7255C225.234 79.7255 232.065 85.8079 232.065 101.856C232.065 128.431 201.7 193.746 174.423 193.746C162.305 193.746 156.878 174.095 149.017 138.584C146.351 128.197 141.672 101.575 134.888 58.8116C128.571 19.1828 124.08 3.32189 101.716 3.32189C50.3899 3.32189 0 74.8128 0 74.8128L7.29881 90.0187C12.7729 86.7436 19.2764 83.0474 28.821 83.0474C47.0212 83.0474 48.8459 103.26 59.2795 140.689C68.6837 175.031 77.9476 208.765 87.4922 243.715C97.0836 278.665 116.781 300 141.017 300C177.371 300 212.367 269.167 259.903 207.642C282.034 179.289 305.334 141.204 317.545 114.395C329.897 87.3518 331.956 64.3325 331.956 53.7586C331.956 23.0661 319.838 0 283.484 0Z" fill="#F4F6F8"/>
</svg>
